<svg width="1330" height="450" viewBox="0 0 1330 450" fill="none" xmlns="http://www.w3.org/2000/svg">
<path fill-rule="evenodd" clip-rule="evenodd" d="M426.702 251.384H271.549L271.532 251.418L317.033 342.307C319.464 347.15 314.552 352.398 309.709 350.137L236.798 316.117L171.432 444.434C168.715 449.767 160.817 447.792 160.817 441.785V280.662L48.0461 228H154.429L169.152 258.338C170.362 260.831 173.02 262.283 175.772 261.954C178.524 261.625 180.765 259.587 181.352 256.878L198.11 179.645L224.648 301.879C225.295 304.859 227.926 306.988 230.974 307C234.023 307.012 236.671 304.903 237.341 301.929L257.096 214.267L266.427 234.734C267.483 237.051 269.795 238.538 272.342 238.538H424.955L429.048 240.449C434.534 242.997 432.745 251.384 426.702 251.384ZM397.114 225.538H276.522L260.914 191.304C259.757 188.764 257.107 187.247 254.331 187.534C251.555 187.822 249.273 189.849 248.659 192.571L231.118 270.408L204.46 147.621C203.811 144.632 201.166 142.5 198.107 142.5C195.049 142.5 192.404 144.633 191.756 147.622L172.636 235.741L164.348 218.662C163.261 216.422 160.99 215 158.5 215H20.2081L3.30014 207.104C-2.20188 204.522 -0.412877 196.135 5.62922 196.135H160.817L115.197 105.331C112.767 100.488 117.678 95.2398 122.522 97.4842L195.533 131.42L260.916 3.10232C263.633 -2.23018 271.515 -0.255802 271.515 5.73482V166.891L397.114 225.538Z" fill="url(#paint0_linear_641_37)"/>
<path d="M492.508 332V77.3613H583.426C603.136 77.3613 619.485 81.0072 632.474 88.2988C645.462 95.4766 655.203 105.332 661.697 117.864C668.191 130.283 671.438 144.297 671.438 159.905C671.438 175.514 668.191 189.585 661.697 202.117C655.203 214.536 645.405 224.391 632.303 231.683C619.314 238.86 602.908 242.449 583.084 242.449H520.877V209.979H579.495C592.142 209.979 602.339 207.814 610.086 203.484C617.947 199.155 623.644 193.23 627.176 185.711C630.822 178.077 632.645 169.476 632.645 159.905C632.645 150.221 630.822 141.676 627.176 134.271C623.644 126.751 617.947 120.883 610.086 116.668C602.225 112.452 591.971 110.345 579.324 110.345H530.96V332H492.508Z" fill="white"/>
<path d="M826.607 253.045V140.936H863.521V332H827.291V298.846H825.24C820.683 308.986 813.619 317.474 804.049 324.31C794.479 331.146 782.516 334.507 768.16 334.393C755.855 334.393 744.975 331.715 735.519 326.36C726.176 321.006 718.827 312.973 713.473 302.264C708.232 291.554 705.611 278.281 705.611 262.444V140.936H742.525V258.172C742.525 271.046 746.171 281.357 753.463 289.104C760.755 296.852 770.154 300.669 781.661 300.555C788.611 300.555 795.504 298.846 802.34 295.428C809.29 292.01 815.043 286.769 819.601 279.705C824.272 272.641 826.607 263.755 826.607 253.045Z" fill="white"/>
<path d="M942.982 77.3613V332H906.068V77.3613H942.982Z" fill="white"/>
<path d="M1128.4 187.762L1094.73 193.572C1092.57 187.192 1088.52 181.325 1082.6 175.97C1076.79 170.615 1068.07 167.938 1056.45 167.938C1045.97 167.938 1037.2 170.33 1030.13 175.115C1023.18 179.786 1019.71 185.768 1019.71 193.06C1019.71 199.44 1022.04 204.624 1026.72 208.611C1031.5 212.599 1039.08 215.789 1049.45 218.182L1080.04 225.018C1097.47 229.005 1110.51 235.271 1119.17 243.816C1127.83 252.361 1132.16 263.299 1132.16 276.629C1132.16 288.136 1128.86 298.39 1122.25 307.391C1115.64 316.277 1106.47 323.284 1094.73 328.411C1083 333.424 1069.44 335.931 1054.06 335.931C1032.64 335.931 1015.21 331.316 1001.76 322.088C988.321 312.859 980.061 299.871 976.984 283.123L1012.7 277.654C1014.98 286.997 1019.6 294.061 1026.54 298.846C1033.61 303.631 1042.72 306.023 1053.89 306.023C1065.97 306.023 1075.65 303.46 1082.94 298.333C1090.35 293.206 1094.05 286.997 1094.05 279.705C1094.05 267.628 1085.05 259.482 1067.05 255.267L1034.75 248.089C1016.86 243.987 1003.64 237.55 995.1 228.777C986.669 219.891 982.453 208.725 982.453 195.281C982.453 184.002 985.586 174.09 991.853 165.545C998.233 157 1006.95 150.392 1018 145.721C1029.17 140.936 1041.87 138.543 1056.11 138.543C1076.85 138.543 1093.08 143.043 1104.82 152.044C1116.67 161.045 1124.53 172.951 1128.4 187.762Z" fill="white"/>
<path d="M1247.34 335.931C1228.65 335.931 1212.48 331.886 1198.8 323.797C1185.13 315.708 1174.59 304.314 1167.19 289.617C1159.9 274.806 1156.25 257.545 1156.25 237.835C1156.25 218.239 1159.84 200.978 1167.02 186.053C1174.31 171.128 1184.51 159.507 1197.61 151.189C1210.82 142.758 1226.32 138.543 1244.09 138.543C1254.92 138.543 1265.4 140.309 1275.54 143.841C1285.68 147.373 1294.79 152.955 1302.88 160.589C1310.97 168.222 1317.35 178.134 1322.02 190.325C1326.81 202.516 1329.2 217.213 1329.2 234.417V247.747H1177.27V219.891H1310.06L1292.8 229.119C1292.8 217.384 1290.97 207.016 1287.33 198.016C1283.68 189.015 1278.21 182.008 1270.92 176.995C1263.75 171.868 1254.8 169.305 1244.09 169.305C1233.38 169.305 1224.21 171.868 1216.58 176.995C1209.06 182.122 1203.3 188.901 1199.32 197.332C1195.33 205.763 1193.33 214.992 1193.33 225.018V243.987C1193.33 257.09 1195.61 268.198 1200.17 277.312C1204.73 286.427 1211.05 293.377 1219.14 298.162C1227.34 302.947 1236.86 305.34 1247.68 305.34C1254.74 305.34 1261.12 304.314 1266.82 302.264C1272.63 300.213 1277.64 297.137 1281.86 293.035C1286.08 288.934 1289.27 283.864 1291.43 277.825L1326.64 284.49C1323.79 294.744 1318.77 303.745 1311.6 311.492C1304.42 319.24 1295.36 325.278 1284.42 329.607C1273.6 333.823 1261.24 335.931 1247.34 335.931Z" fill="white"/>
<path d="M519.016 431.125C513.797 431.125 509.266 430.312 505.422 428.688C501.609 427.031 498.625 424.672 496.469 421.609C494.312 418.547 493.109 414.906 492.859 410.688H503.453C503.672 413.219 504.484 415.328 505.891 417.016C507.328 418.672 509.188 419.906 511.469 420.719C513.75 421.531 516.25 421.938 518.969 421.938C521.938 421.938 524.594 421.469 526.938 420.531C529.281 419.594 531.109 418.281 532.422 416.594C533.766 414.875 534.438 412.875 534.438 410.594C534.438 408.531 533.844 406.844 532.656 405.531C531.5 404.219 529.922 403.141 527.922 402.297C525.922 401.422 523.672 400.656 521.172 400L512.969 397.75C507.344 396.25 502.906 394.016 499.656 391.047C496.406 388.047 494.781 384.125 494.781 379.281C494.781 375.25 495.859 371.734 498.016 368.734C500.203 365.734 503.156 363.406 506.875 361.75C510.625 360.062 514.828 359.219 519.484 359.219C524.234 359.219 528.406 360.062 532 361.75C535.625 363.406 538.484 365.688 540.578 368.594C542.703 371.469 543.812 374.766 543.906 378.484H533.688C533.312 375.266 531.812 372.766 529.188 370.984C526.594 369.203 523.281 368.312 519.25 368.312C516.438 368.312 513.969 368.766 511.844 369.672C509.75 370.547 508.125 371.766 506.969 373.328C505.844 374.891 505.281 376.688 505.281 378.719C505.281 380.906 505.953 382.688 507.297 384.062C508.672 385.438 510.328 386.531 512.266 387.344C514.234 388.125 516.125 388.766 517.938 389.266L524.734 391.094C526.953 391.656 529.234 392.406 531.578 393.344C533.922 394.281 536.094 395.516 538.094 397.047C540.125 398.547 541.75 400.422 542.969 402.672C544.219 404.891 544.844 407.578 544.844 410.734C544.844 414.641 543.828 418.141 541.797 421.234C539.766 424.297 536.828 426.719 532.984 428.5C529.141 430.25 524.484 431.125 519.016 431.125Z" fill="white"/>
<path d="M552.625 449.594V377.594H562.469V386.125H563.312C563.938 385.031 564.797 383.766 565.891 382.328C567.016 380.891 568.578 379.641 570.578 378.578C572.578 377.484 575.188 376.938 578.406 376.938C582.625 376.938 586.375 378 589.656 380.125C592.969 382.25 595.578 385.328 597.484 389.359C599.391 393.391 600.344 398.25 600.344 403.938C600.344 409.562 599.406 414.406 597.531 418.469C595.656 422.5 593.062 425.609 589.75 427.797C586.469 429.953 582.703 431.031 578.453 431.031C575.297 431.031 572.703 430.5 570.672 429.438C568.672 428.344 567.094 427.078 565.938 425.641C564.812 424.203 563.938 422.938 563.312 421.844H562.75V449.594H552.625ZM576.25 422.359C579.281 422.359 581.812 421.547 583.844 419.922C585.875 418.297 587.406 416.094 588.438 413.312C589.5 410.5 590.031 407.344 590.031 403.844C590.031 400.375 589.516 397.266 588.484 394.516C587.453 391.766 585.922 389.594 583.891 388C581.859 386.406 579.312 385.609 576.25 385.609C573.281 385.609 570.781 386.375 568.75 387.906C566.719 389.406 565.172 391.531 564.109 394.281C563.078 397 562.562 400.188 562.562 403.844C562.562 407.5 563.094 410.719 564.156 413.5C565.219 416.281 566.766 418.453 568.797 420.016C570.859 421.578 573.344 422.359 576.25 422.359Z" fill="white"/>
<path d="M622.938 431.125C619.625 431.125 616.625 430.516 613.938 429.297C611.25 428.047 609.125 426.234 607.562 423.859C606 421.484 605.219 418.594 605.219 415.188C605.219 412.219 605.781 409.797 606.906 407.922C608.062 406.016 609.609 404.5 611.547 403.375C613.484 402.25 615.641 401.406 618.016 400.844C620.391 400.281 622.828 399.844 625.328 399.531C628.484 399.188 631.031 398.891 632.969 398.641C634.906 398.391 636.312 398 637.188 397.469C638.094 396.906 638.547 396.016 638.547 394.797V394.562C638.547 391.594 637.703 389.297 636.016 387.672C634.359 386.047 631.891 385.234 628.609 385.234C625.203 385.234 622.5 385.984 620.5 387.484C618.531 388.953 617.172 390.625 616.422 392.5L606.812 390.297C607.969 387.109 609.641 384.547 611.828 382.609C614.047 380.641 616.578 379.203 619.422 378.297C622.297 377.391 625.297 376.938 628.422 376.938C630.516 376.938 632.734 377.188 635.078 377.688C637.422 378.156 639.625 379.047 641.688 380.359C643.781 381.641 645.484 383.484 646.797 385.891C648.109 388.297 648.766 391.406 648.766 395.219V430H638.781V422.828H638.406C637.781 424.109 636.797 425.391 635.453 426.672C634.141 427.953 632.453 429.016 630.391 429.859C628.328 430.703 625.844 431.125 622.938 431.125ZM625.141 422.969C627.984 422.969 630.406 422.422 632.406 421.328C634.406 420.203 635.938 418.734 637 416.922C638.062 415.109 638.594 413.188 638.594 411.156V404.359C638.219 404.703 637.516 405.031 636.484 405.344C635.453 405.656 634.281 405.922 632.969 406.141C631.656 406.359 630.375 406.562 629.125 406.75C627.875 406.906 626.828 407.031 625.984 407.125C624.016 407.406 622.219 407.844 620.594 408.438C618.969 409 617.656 409.844 616.656 410.969C615.688 412.062 615.203 413.516 615.203 415.328C615.203 417.859 616.141 419.766 618.016 421.047C619.891 422.328 622.266 422.969 625.141 422.969Z" fill="white"/>
<path d="M658.562 430V377.594H668.359V385.984H668.922C669.891 383.172 671.578 380.953 673.984 379.328C676.422 377.672 679.172 376.844 682.234 376.844C682.859 376.844 683.594 376.875 684.438 376.938C685.312 376.969 686.016 377.016 686.547 377.078V386.828C686.141 386.703 685.406 386.578 684.344 386.453C683.312 386.328 682.266 386.266 681.203 386.266C678.797 386.266 676.641 386.781 674.734 387.812C672.859 388.812 671.375 390.203 670.281 391.984C669.219 393.734 668.688 395.766 668.688 398.078V430H658.562Z" fill="white"/>
<path d="M700.844 412.234L700.703 399.812H702.531L723.391 377.594H735.578L711.812 402.906H710.125L700.844 412.234ZM691.469 430V360.156H701.594V430H691.469ZM724.469 430L705.719 405.156L712.75 397.984L737.031 430H724.469Z" fill="white"/>
<path d="M763 430V360.156H806.359V369.203H773.547V391.844H803.219V400.844H773.547V430H763Z" fill="white"/>
<path d="M832.609 431.078C827.703 431.078 823.406 429.953 819.719 427.703C816.062 425.453 813.219 422.297 811.188 418.234C809.188 414.172 808.188 409.453 808.188 404.078C808.188 398.641 809.188 393.891 811.188 389.828C813.219 385.734 816.062 382.562 819.719 380.312C823.406 378.062 827.703 376.938 832.609 376.938C837.547 376.938 841.844 378.062 845.5 380.312C849.156 382.562 852 385.734 854.031 389.828C856.062 393.891 857.078 398.641 857.078 404.078C857.078 409.453 856.062 414.172 854.031 418.234C852 422.297 849.156 425.453 845.5 427.703C841.844 429.953 837.547 431.078 832.609 431.078ZM832.609 422.5C835.828 422.5 838.484 421.656 840.578 419.969C842.672 418.281 844.219 416.047 845.219 413.266C846.25 410.453 846.766 407.391 846.766 404.078C846.766 400.703 846.25 397.609 845.219 394.797C844.219 391.984 842.672 389.734 840.578 388.047C838.484 386.359 835.828 385.516 832.609 385.516C829.422 385.516 826.781 386.359 824.688 388.047C822.625 389.734 821.078 391.984 820.047 394.797C819.016 397.609 818.5 400.703 818.5 404.078C818.5 407.391 819.016 410.453 820.047 413.266C821.078 416.047 822.625 418.281 824.688 419.969C826.781 421.656 829.422 422.5 832.609 422.5Z" fill="white"/>
<path d="M864.438 430V377.594H874.234V385.984H874.797C875.766 383.172 877.453 380.953 879.859 379.328C882.297 377.672 885.047 376.844 888.109 376.844C888.734 376.844 889.469 376.875 890.312 376.938C891.188 376.969 891.891 377.016 892.422 377.078V386.828C892.016 386.703 891.281 386.578 890.219 386.453C889.188 386.328 888.141 386.266 887.078 386.266C884.672 386.266 882.516 386.781 880.609 387.812C878.734 388.812 877.25 390.203 876.156 391.984C875.094 393.734 874.562 395.766 874.562 398.078V430H864.438Z" fill="white"/>
<path d="M906.719 412.234L906.578 399.812H908.406L929.266 377.594H941.453L917.688 402.906H916L906.719 412.234ZM897.344 430V360.156H907.469V430H897.344ZM930.344 430L911.594 405.156L918.625 397.984L942.906 430H930.344Z" fill="white"/>
<defs>
<linearGradient id="paint0_linear_641_37" x1="112" y1="353.5" x2="336.965" y2="89.4699" gradientUnits="userSpaceOnUse">
<stop stop-color="#FB0422"/>
<stop offset="0.3" stop-color="#D816E9"/>
<stop offset="0.63" stop-color="#235CFD"/>
<stop offset="1" stop-color="#01E3FD"/>
</linearGradient>
</defs>
</svg>
